<?xml version="1.0" standalone="no"?>
<!DOCTYPE svg PUBLIC "-//W3C//DTD SVG 20010904//EN"
 "http://www.w3.org/TR/2001/REC-SVG-20010904/DTD/svg10.dtd">
<svg version="1.0" xmlns="http://www.w3.org/2000/svg"
 width="325.000000pt" height="325.000000pt" viewBox="0 0 325.000000 325.000000"
 preserveAspectRatio="xMidYMid meet">
<metadata>
Created by potrace 1.11, written by Peter Selinger 2001-2013
</metadata>
<g transform="translate(0.000000,325.000000) scale(0.100000,-0.100000)"
fill="#000000" stroke="none">
<path d="M1167 2987 c-13 -11 -25 -53 -41 -150 -3 -15 -7 -35 -10 -45 -3 -9
-7 -28 -10 -42 -3 -14 -16 -81 -30 -150 -14 -69 -27 -136 -30 -150 -14 -75
-20 -92 -37 -100 -10 -6 -89 -10 -177 -10 -207 0 -219 -3 -231 -49 -14 -50
-61 -331 -64 -372 -2 -31 0 -34 28 -35 17 -1 101 -4 189 -7 87 -3 159 -7 161
-9 12 -13 4 -87 -24 -208 -5 -25 -13 -61 -16 -80 -11 -68 -26 -110 -38 -111
-7 -1 -97 -3 -200 -4 -103 -2 -191 -6 -194 -9 -4 -4 -8 -17 -10 -29 -2 -12
-17 -94 -34 -182 -42 -218 -45 -247 -28 -245 43 6 356 -2 368 -9 12 -8 10 -31
-12 -153 -15 -78 -28 -152 -31 -163 -2 -11 -11 -58 -20 -105 -9 -47 -18 -96
-21 -110 -28 -136 -29 -134 35 -141 77 -8 402 -1 411 8 6 7 78 329 95 428 3
17 15 75 27 130 20 89 25 100 47 106 14 4 107 7 208 8 139 1 182 -2 182 -11 0
-20 -36 -212 -59 -315 -35 -159 -57 -303 -52 -339 1 -12 45 -14 343 -18 l117
-2 20 85 c11 48 22 100 25 116 13 63 16 81 21 110 3 17 8 37 10 45 2 8 7 31
10 50 3 19 8 42 10 50 2 8 7 29 10 47 13 76 33 165 40 171 4 4 99 9 211 12
217 5 218 6 228 55 9 39 56 311 62 351 3 24 1 45 -5 48 -5 4 -86 7 -179 7
-196 1 -218 7 -216 59 1 19 16 106 34 193 l33 157 61 1 c34 0 90 2 126 4 36 1
102 3 147 5 45 2 85 6 90 9 8 5 25 69 37 141 2 14 11 63 19 110 9 47 19 110
22 141 l7 56 -124 2 c-137 2 -270 10 -277 17 -3 2 3 50 13 107 9 56 18 111 20
122 2 11 11 56 19 100 9 44 18 89 20 100 3 11 7 36 11 55 3 19 8 44 10 55 2
11 7 39 11 63 l7 43 -209 -1 c-114 -1 -221 -4 -236 -7 -29 -6 -41 -24 -51 -79
-9 -49 -16 -87 -31 -152 -8 -34 -17 -77 -20 -95 -5 -29 -8 -47 -19 -102 -19
-92 -49 -201 -58 -213 -9 -11 -48 -13 -187 -11 -97 1 -184 4 -193 7 -22 5 -23
29 -2 124 8 40 18 84 20 98 3 14 13 70 24 125 26 132 35 186 45 273 l4 33
-224 -1 c-155 -1 -228 -5 -238 -13z m718 -1082 c-13 -57 -76 -359 -87 -420
l-14 -70 -239 0 -240 0 -3 27 c-3 25 40 266 74 418 l14 65 250 0 c244 0 249 0
245 -20z"/>
</g>
</svg>
